<?xml version="1.0" encoding="utf-8"?>
<!-- Generator: Adobe Illustrator 16.0.0, SVG Export Plug-In . SVG Version: 6.00 Build 0)  -->
<!DOCTYPE svg PUBLIC "-//W3C//DTD SVG 1.1//EN" "http://www.w3.org/Graphics/SVG/1.1/DTD/svg11.dtd">
<svg version="1.1" id="Layer_1" xmlns="http://www.w3.org/2000/svg" xmlns:xlink="http://www.w3.org/1999/xlink" x="0px" y="0px"
	 width="610.588px" height="171.177px" viewBox="0 0 610.588 171.177" enable-background="new 0 0 610.588 171.177"
	 xml:space="preserve">
<g>
	<path d="M344.874,91.106c0.579,9.195,6.589,14.844,15.422,14.844c8.979,0,14.77-5.213,14.77-12.164
		c0-8.037-4.995-9.919-15.276-12.815c-5.431-1.521-9.702-2.606-12.309-4.996c-2.462-2.245-3.692-5.213-3.692-8.616
		c0-7.964,5.865-13.612,15.639-13.612c9.774,0,16.291,5.865,16.652,15.277h-2.316c-0.145-8.109-5.938-13.25-14.48-13.25
		c-8.254,0-13.178,4.634-13.178,11.584c0,2.679,1.086,5.068,3.186,7.023c2.317,2.172,6.227,3.114,11.295,4.489
		c11.223,3.041,16.943,5.647,16.943,14.263c0,8.906-6.59,14.988-17.305,14.988c-10.137,0-16.942-6.299-17.738-17.016H344.874z"/>
	<path d="M411.847,108.05c-13.539,0-21.648-9.92-21.648-27.007c0-17.449,8.471-27.296,22.083-27.296
		c10.571,0,18.535,6.589,19.549,16.291h-2.462c-1.447-8.906-7.819-14.119-17.521-14.119c-11.367,0-19.114,9.195-19.114,25.124
		c0,15.784,7.386,24.907,18.753,24.907c10.57,0,17.594-6.227,18.1-16.219h2.391C431.323,100.954,423.504,108.05,411.847,108.05z"/>
	<path d="M444.646,54.906h17.305c12.091,0,17.811,3.548,17.811,13.612c0,6.661-3.041,10.86-9.412,12.815
		c4.416,0.869,6.806,3.837,7.312,8.978c0.797,7.964,0.072,13.612,2.39,16.653h-2.679c-1.376-1.738-1.376-5.213-1.666-10.644
		c-0.289-4.923-0.289-8.399-2.461-11.005c-1.955-2.317-5.141-2.969-10.064-2.969h-16.073v24.618h-2.462V54.906z M463.181,80.174
		c9.34,0,14.119-3.982,14.119-11.44c0-3.403-1.014-6.227-2.969-8.254c-3.041-3.186-6.807-3.33-12.381-3.33h-14.843v23.024H463.181z"
		/>
	<path d="M495.834,54.906h2.39v52.058h-2.39V54.906z"/>
	<path d="M550.643,68.662c0,4.2-1.376,7.747-3.909,10.281c-3.477,3.476-8.109,3.982-15.061,3.982h-11.512v24.038h-2.462V54.906
		h14.19C544.488,54.906,550.643,59.105,550.643,68.662z M520.161,57.078v23.676h9.919c5.068,0,8.978,0,12.091-1.375
		c3.621-1.593,5.938-5.72,5.938-10.933c0-4.344-1.811-7.602-5.213-9.484c-3.113-1.738-7.168-1.883-12.743-1.883H520.161z"/>
	<path d="M573.667,57.15h-16.508v-2.245h35.188v2.245h-16.219v49.813h-2.461V57.15z"/>
</g>
<g>
	<path d="M65.82,81.373c0,1.673-0.064,4.365-0.193,8.076c-0.129,3.711-0.193,6.98-0.193,9.812s0.129,5.383,0.386,7.656
		c0.042,0.516-0.172,0.857-0.644,1.031c0,0.084-0.022,0.203-0.064,0.354c-0.043,0.148-0.064,0.246-0.064,0.289
		c-0.257,0.516-0.73,0.729-1.416,0.643c-0.172,0-0.28-0.021-0.322-0.064h-0.129c-2.403,0.086-4.568-0.043-6.499-0.385
		c-0.257-0.043-0.461-0.172-0.611-0.387c-0.15-0.215-0.204-0.473-0.161-0.771l0.129-0.258c-1.03-1.416-1.845-2.381-2.445-2.896
		c-0.429-0.043-0.708-0.279-0.836-0.707c-0.215-0.258-0.301-0.559-0.257-0.9c0.042-0.172,0.128-0.322,0.257-0.451v-2.701
		c-1.76,1.887-4.076,3.387-6.95,4.504c-3.26,1.328-6.445,1.77-9.555,1.318c-3.111-0.451-5.92-1.49-8.429-3.121
		c-2.509-1.629-4.623-3.828-6.338-6.596c-1.716-2.766-2.81-5.801-3.282-9.104c-0.814-5.877-0.193-11.475,1.866-16.794
		c2.059-5.319,5.511-9.523,10.359-12.612c4.633-2.917,9.609-3.774,14.928-2.574c2.531,0.344,4.965,1.008,7.303,1.995
		c2.337,0.987,4.472,2.252,6.402,3.797c1.931,1.544,3.464,3.475,4.601,5.791c1.136,2.316,1.706,4.825,1.706,7.528
		c0,0.257-0.108,0.493-0.322,0.708c-0.043,0.086-0.108,0.172-0.193,0.257c-0.128,0.129-0.257,0.216-0.386,0.258
		c-0.172,0.172-0.386,0.279-0.644,0.321c-0.515,0.172-2.038,0.184-4.569,0.032c-2.531-0.149-3.968-0.225-4.311-0.225
		c-0.515,0-0.836-0.258-0.965-0.772c-0.473-0.386-1.116-1.029-1.931-1.931c-0.257,0.043-0.494-0.021-0.708-0.193
		c-0.215-0.171-0.344-0.386-0.386-0.643c-0.086-0.601,0.171-0.966,0.772-1.095c-0.043-0.085-0.064-0.171-0.064-0.257
		c-0.128-2.702-1.426-4.707-3.893-6.017c-2.467-1.308-5.331-1.641-8.59-0.997c-0.558,0.086-1.116,0.215-1.673,0.386
		c0,0.344-0.151,0.623-0.451,0.837c-1.888,1.201-3.26,3.336-4.118,6.402c-0.859,3.067-1.137,6.467-0.837,10.198
		c0.3,3.647,1.094,6.865,2.381,9.652c1.287,2.789,2.853,4.547,4.697,5.277c2.316,0.086,4.504-0.439,6.563-1.576
		s3.581-2.736,4.568-4.795c-0.558,0-1.599,0.033-3.121,0.098c-1.523,0.064-2.692,0.096-3.507,0.096
		c-0.301,0-0.537-0.107-0.708-0.322h-0.064c-0.172-0.213-0.751-0.9-1.737-2.059l-0.965-1.158h-0.064
		c-0.215,0-0.429-0.064-0.644-0.193c-0.386-0.129-0.622-0.406-0.708-0.836c-0.043-0.343,0.086-0.644,0.386-0.9
		c-0.043-0.129-0.128-0.986-0.257-2.574c-0.086-1.071-0.107-1.951-0.064-2.638c-0.257-0.171-0.408-0.407-0.45-0.708
		c-0.043-0.258,0.021-0.493,0.193-0.708c0.171-0.214,0.386-0.343,0.644-0.386h0.064c0.214-0.171,0.45-0.235,0.708-0.193
		c0.085,0,0.171,0.022,0.257,0.064c1.501-0.171,3.163-0.289,4.987-0.354c1.823-0.064,3.378-0.097,4.665-0.097
		c1.287,0,3.013,0.011,5.18,0.032c2.166,0.021,3.721,0.032,4.665,0.032c0.085,0,0.193,0.021,0.322,0.064
		c0.171-0.3,0.428-0.451,0.772-0.451h0.064c0.085,0,0.193,0.022,0.322,0.064c0.343,0.129,0.686,0.29,1.029,0.482
		c0.343,0.193,0.708,0.44,1.094,0.74c0.386,0.301,0.654,0.526,0.805,0.676c0.149,0.15,0.45,0.43,0.901,0.837
		c0.45,0.408,0.697,0.633,0.74,0.675c0.472,0.43,0.493,0.88,0.064,1.352C65.884,81.351,65.862,81.373,65.82,81.373z M53.465,85.747
		c-0.043,1.117-0.429,2.533-1.158,4.248c-0.772,1.717-1.877,3.207-3.313,4.473c-1.438,1.266-3.014,2.178-4.729,2.734
		c-1.716,0.557-3.539,0.793-5.47,0.707c-1.93-0.086-3.732-0.557-5.405-1.416c-2.789-1.371-4.826-4.053-6.113-8.043
		c-0.815-2.615-1.33-5.897-1.544-9.844c-0.128-2.487,0.15-4.762,0.836-6.821c0.686-2.059,1.662-3.785,2.928-5.18
		c1.265-1.394,2.691-2.53,4.279-3.41c1.586-0.879,3.281-1.49,5.083-1.834c2.273-0.428,4.493-0.407,6.66,0.064
		c2.166,0.473,4.022,1.47,5.566,2.992c1.544,1.523,2.381,3.442,2.51,5.759v0.258c0.729-0.043,1.758-0.032,3.088,0.032
		c1.329,0.064,2.081,0.096,2.252,0.096c-0.815-3.517-2.51-6.53-5.083-9.04s-5.556-4.15-8.944-4.922
		c-1.158-0.129-2.295-0.193-3.411-0.193c-0.257,0-0.473-0.085-0.644-0.257c-3.346,0.043-6.478,0.987-9.394,2.831
		c-4.462,2.831-7.657,6.735-9.588,11.711c-1.974,4.934-2.553,10.189-1.737,15.765c0.428,3.047,1.437,5.834,3.024,8.365
		c1.544,2.531,3.453,4.525,5.727,5.984c2.273,1.459,4.815,2.391,7.625,2.799c2.809,0.406,5.695,0.01,8.655-1.191
		c3.388-1.328,5.919-3.26,7.593-5.791v-0.385c0-0.645,0.322-0.967,0.965-0.967c0.171,0,0.343,0.043,0.515,0.129l0.257,0.129
		c0.557,0.301,0.686,0.73,0.386,1.287l-0.193,0.387v5.082c0.686,0.043,2.487,0.064,5.405,0.064c0-0.986-0.108-5.061-0.322-12.225
		c-0.086-4.547-0.064-8.322,0.064-11.326h-0.064c-0.987,0-2.532-0.01-4.633-0.032c-2.103-0.021-3.787-0.032-5.051-0.032
		c-1.266,0-2.778,0.032-4.537,0.097c-1.759,0.064-3.346,0.184-4.761,0.354c-0.043,0.644-0.022,1.479,0.064,2.509
		c0.129,1.545,0.193,2.339,0.193,2.381c1.2-0.128,2.455-0.203,3.764-0.225c1.308-0.021,2.831-0.011,4.568,0.032
		s2.928,0.064,3.571,0.064s0.965,0.321,0.965,0.965C53.916,85.297,53.765,85.577,53.465,85.747z M34.87,95.079
		c-0.815-0.986-1.523-2.166-2.124-3.539c-1.374-2.918-2.231-6.328-2.574-10.232c-0.215-2.917-0.097-5.736,0.354-8.461
		c0.45-2.724,1.276-5.029,2.477-6.918c-3.861,2.918-5.641,7.101-5.34,12.548c0.214,3.775,0.708,6.907,1.479,9.395
		c1.115,3.475,2.832,5.791,5.148,6.949C34.461,94.907,34.654,94.993,34.87,95.079z M44.071,87.937c0.772,0,1.94-0.033,3.507-0.098
		c1.565-0.064,2.735-0.096,3.507-0.096c0.258-0.686,0.386-1.309,0.386-1.867c-4.89-0.084-7.937-0.084-9.137,0l0.322,0.387
		C43.299,87.079,43.771,87.636,44.071,87.937z M62.345,73.586c-0.515-0.515-1.073-1.007-1.673-1.479
		c-0.129,0.086-0.257,0.15-0.386,0.192h-0.257c-0.172,0.129-0.365,0.193-0.579,0.193c-0.644,0-1.502-0.021-2.574-0.064
		c-1.073-0.042-1.845-0.085-2.316-0.129c0.343,0.387,0.708,0.688,1.094,0.901l0.064,0.064c0.557,0,1.597,0.064,3.121,0.193
		C60.36,73.586,61.53,73.63,62.345,73.586z M63.311,71.849c-0.644-4.847-3.325-8.729-8.043-11.646
		c2.703,2.66,4.525,5.813,5.469,9.459C61.68,70.391,62.538,71.121,63.311,71.849z M62.667,107.239l-0.386-0.643
		c-0.73-1.158-1.223-1.975-1.48-2.445c-0.128,0.086-0.279,0.129-0.45,0.129c-0.086,0-0.783,0.01-2.091,0.031
		c-1.309,0.021-2.027,0.01-2.156-0.031c0.171,0.213,0.858,1.135,2.059,2.766C59.492,107.218,60.994,107.282,62.667,107.239z
		 M63.89,80.793c-0.944-0.857-1.652-1.458-2.124-1.802c-0.129,2.918-0.151,6.628-0.064,11.132
		c0.214,7.164,0.322,11.281,0.322,12.354c0.085,0.086,0.171,0.193,0.257,0.322c0.171,0.428,0.644,1.264,1.416,2.51
		c-0.172-3.389-0.247-6.092-0.225-8.107c0.021-2.016,0.097-4.826,0.225-8.43C63.825,85.168,63.89,82.509,63.89,80.793z"/>
	<path d="M102.432,61.232c0.428,0.688,0.804,1.471,1.126,2.349c0.322,0.88,0.632,1.834,0.933,2.864
		c0.3,1.029,0.536,1.78,0.708,2.252c0.257,0.687,0.793,1.865,1.608,3.539c0.729,1.587,1.244,2.853,1.544,3.796
		c0.171,0.473,0.644,2.038,1.416,4.697c0.557,1.931,1.051,3.433,1.48,4.504c0.214,0.602,0.943,2.295,2.188,5.084
		c0.943,2.145,1.629,3.902,2.059,5.275c0.214,0.602,0.515,1.609,0.901,3.023c0.386,1.416,0.75,2.629,1.094,3.637
		c0.343,1.008,0.729,1.939,1.158,2.799c0.299,0.6,0.171,1.029-0.386,1.287c-0.086,0.086-0.193,0.129-0.322,0.129
		c-0.172,0.213-0.408,0.342-0.708,0.385c-0.172,0.215-0.386,0.322-0.644,0.322c-0.558,0.043-1.737,0.15-3.539,0.322
		c-1.459,0.129-2.66,0.193-3.604,0.193c-0.215,0-0.408-0.064-0.579-0.193c-0.386,0.043-0.708-0.086-0.965-0.387l-1.801-2.123
		l-1.737-2.188l-0.129-0.129c-0.301-0.215-0.601-0.6-0.901-1.158l-0.644-1.609c-0.215-0.6-0.579-1.693-1.094-3.281h-0.193
		c-1.374-0.299-2.875-0.504-4.504-0.611c-1.631-0.105-3.497-0.17-5.598-0.193c-2.102-0.02-3.667-0.053-4.697-0.096
		c-1.116,2.273-2.081,4.334-2.896,6.178c-1.33,3.131-2.038,5.254-2.124,6.369c0,0.258-0.107,0.473-0.321,0.645
		c-0.215,0.17-0.451,0.256-0.708,0.256c-0.086,0-0.151-0.021-0.193-0.062c-0.257,0.299-0.579,0.428-0.965,0.385
		c-0.301-0.086-0.74-0.182-1.319-0.289s-0.955-0.184-1.126-0.225c-0.944-0.172-1.716-0.279-2.316-0.322
		c-0.215,0-0.386-0.064-0.515-0.193c-0.215-0.043-0.408-0.15-0.579-0.322c-1.716-1.844-2.767-3.539-3.153-5.082
		c-0.085-0.215-0.085-0.408,0-0.58c-0.042-0.129-0.064-0.258-0.064-0.385c0-0.387,0.172-0.666,0.515-0.838
		c0.644-1.973,1.609-4.719,2.896-8.236l2.574-6.949l1.609-4.632l1.802-5.276c0.428-1.158,1.019-2.648,1.77-4.472
		c0.75-1.823,1.49-3.443,2.22-4.858c0.042-0.042,0.686-1.737,1.931-5.083c0.515-1.244,0.943-2.209,1.287-2.896
		c0.214-0.472,0.407-0.836,0.579-1.093c0.257-0.428,0.557-0.708,0.901-0.836c0.772-0.3,1.973-0.451,3.604-0.451
		c0.857,0,1.565,0.064,2.124,0.193c0.085,0,0.171,0.022,0.257,0.064c0.214-0.085,0.407-0.085,0.579,0
		c1.029,0.386,2.208,1.073,3.539,2.06c1.544,1.115,2.509,1.78,2.896,1.994C101.831,60.697,102.175,60.846,102.432,61.232z
		 M74.892,106.726c0.644,0.084,1.458,0.213,2.445,0.385l1.544,0.322c-0.987-1.373-2.038-2.488-3.153-3.346
		c-0.172-0.129-0.279-0.279-0.321-0.451l-1.287-0.193c-0.73-0.129-1.287-0.215-1.673-0.256
		C72.79,104.173,73.605,105.351,74.892,106.726z M89.177,58.659c0,0.043-0.022,0.086-0.064,0.129
		c-0.129,0.215-0.28,0.493-0.451,0.836l-1.223,2.831c-1.287,3.39-1.974,5.148-2.059,5.276c-0.687,1.374-1.394,2.95-2.123,4.729
		c-0.73,1.781-1.309,3.25-1.737,4.408c-0.43,1.158-1.03,2.885-1.802,5.18c-0.772,2.295-1.309,3.851-1.609,4.666
		c-0.429,1.244-1.266,3.529-2.509,6.852c-1.245,3.326-2.167,5.91-2.767,7.754l1.609,0.193c0.857,0.129,1.394,0.215,1.608,0.258
		h0.257c0.129-0.344,0.322-0.814,0.58-1.416c0.128-0.387,0.665-1.887,1.608-4.504c0.729-2.102,1.308-3.689,1.737-4.762
		c0.3-0.729,0.579-1.33,0.836-1.803c0.343-0.6,0.665-1.006,0.965-1.221l0.515-0.193c0.042,0,0.106-0.021,0.193-0.064h0.58
		c0.471-0.043,1.094-0.064,1.866-0.064c1.501,0,3.324,0.021,5.469,0.064c2.145,0.043,3.99,0.086,5.534,0.129
		c0.814,0.043,1.48,0.064,1.995,0.064c0.6,0.043,0.986,0.107,1.158,0.191c0.471,0.172,0.901,0.537,1.287,1.094
		c0.3,0.387,0.601,0.924,0.901,1.609c0.428,0.9,0.943,2.295,1.544,4.184c0.814,2.443,1.287,3.818,1.416,4.117
		c0.214,0.602,0.407,1.072,0.579,1.416l0.322,0.514c0.129,0.088,0.493,0.152,1.094,0.193h1.673c0.085,0,0.354,0.012,0.804,0.033
		c0.45,0.021,0.825,0.031,1.126,0.031h0.515c-0.473-0.729-0.751-1.199-0.836-1.416c-0.386-1.07-1.008-2.572-1.866-4.504
		c-0.815-1.844-1.309-3.002-1.479-3.475c-1.159-2.873-2.832-7.571-5.019-14.091c-2.059-6.134-3.754-10.788-5.083-13.963
		c-0.129-0.343-0.279-0.814-0.45-1.416l-0.451-1.479c-0.344-1.115-0.687-1.888-1.029-2.316c-0.043-0.043-0.257-0.106-0.644-0.193
		c-0.429-0.085-0.987-0.129-1.673-0.129C90.828,58.401,89.863,58.488,89.177,58.659z M85.059,94.435
		c-1.245-1.586-2.103-2.787-2.574-3.604c-0.172,0.301-0.322,0.645-0.45,1.029c-0.344,0.773-0.923,2.316-1.737,4.633
		c-0.944,2.617-1.48,4.119-1.609,4.504c-0.257,0.688-0.472,1.223-0.643,1.609c-0.087,0.215-0.193,0.387-0.322,0.516v0.129
		c0.857,0.729,1.673,1.607,2.445,2.637c0.343-1.287,0.922-2.873,1.737-4.762C82.807,99.11,83.857,96.88,85.059,94.435z
		 M84.93,84.654h-0.386c-0.643,0-0.965-0.321-0.965-0.965c0-0.429,0.193-0.729,0.579-0.9c0.299-1.587,1.094-3.807,2.381-6.66
		c1.287-2.853,1.951-4.3,1.995-4.344c0.686-1.802,1.244-3.624,1.673-5.469v-0.064v-0.193v-0.193c0-0.257,0.042-0.492,0.129-0.707
		c0.085-0.258,0.257-0.429,0.515-0.515c0.214-0.129,0.471-0.15,0.772-0.064c0.3,0.043,0.557,0.236,0.772,0.579
		c0.086,0.128,0.171,0.301,0.258,0.515c0.128,0.344,0.257,0.772,0.386,1.287c0.042,0.3,0.107,0.707,0.193,1.223
		c0.085,0.386,0.128,0.601,0.128,0.643c0.171,0.644,0.407,1.609,0.708,2.896l0.579,2.768c0.085,0.257,0.686,1.651,1.802,4.183
		c0.471,1.029,0.814,1.845,1.029,2.444c0.129,0.43,0.235,0.772,0.322,1.03c0.085,0.429,0.106,0.771,0.064,1.029
		c-0.086,0.344-0.301,0.602-0.644,0.772c-0.129,0.086-0.301,0.15-0.515,0.192c-0.257,0.044-0.623,0.087-1.094,0.129
		c-0.815,0.087-1.952,0.172-3.41,0.258c-2.102,0.086-4.483,0.128-7.142,0.128H84.93z M86.989,93.792
		c0.901,0.043,2.327,0.074,4.279,0.096c1.952,0.021,3.71,0.086,5.276,0.193c1.565,0.107,3.013,0.268,4.343,0.482
		c-0.429-1.201-0.794-2.166-1.094-2.896c-0.257-0.557-0.494-0.986-0.708-1.285L98.7,89.995c-0.043,0-0.257-0.021-0.644-0.064
		c-0.473,0-1.116-0.021-1.93-0.064c-1.544-0.043-3.368-0.086-5.47-0.129c-2.146-0.043-3.947-0.064-5.405-0.064
		c-0.473,0-0.859,0.021-1.158,0.064C84.48,90.425,85.445,91.776,86.989,93.792z M91.494,69.083c-0.344,1.158-0.73,2.274-1.158,3.346
		c-0.258,0.644-0.956,2.178-2.091,4.601c-1.137,2.425-1.834,4.322-2.091,5.695c2.23-0.043,4.225-0.086,5.984-0.129
		c1.373-0.086,2.445-0.15,3.217-0.193c0.171-0.042,0.322-0.064,0.451-0.064c-0.043-0.171-0.086-0.363-0.129-0.579
		c-0.215-0.557-0.558-1.329-1.029-2.316c-1.116-2.616-1.716-4.096-1.802-4.439c-0.215-0.644-0.451-1.608-0.708-2.896
		s-0.45-2.209-0.579-2.767C91.515,69.297,91.494,69.211,91.494,69.083z M116.009,103.829c-0.386-1.029-0.859-2.486-1.416-4.375
		l-0.901-3.346c-0.386-1.201-1.052-2.875-1.995-5.02l-2.252-5.084c-0.473-1.2-0.987-2.766-1.544-4.697
		c-0.858-2.917-1.309-4.461-1.351-4.633c-0.301-0.9-0.794-2.102-1.48-3.604c-0.858-1.758-1.416-3.002-1.673-3.731
		c-0.215-0.516-0.558-1.555-1.03-3.121c-0.472-1.565-0.923-2.734-1.351-3.507c-0.129,0-0.257-0.042-0.386-0.129
		c-0.515-0.3-1.608-1.051-3.281-2.252l-0.193-0.129l0.064,0.258l0.45,1.479c0.171,0.515,0.322,0.923,0.451,1.223
		c1.329,3.218,3.024,7.915,5.083,14.092c2.144,6.435,3.817,11.09,5.019,13.963c0.171,0.43,0.686,1.619,1.544,3.57
		c0.857,1.953,1.458,3.465,1.802,4.537c0,0.043,0.235,0.408,0.708,1.094c0.086,0.129,0.15,0.258,0.193,0.387
		c0.214,0.043,0.386,0.129,0.515,0.256l1.48,1.352L116.009,103.829z M109.446,105.759c0.858,0,2.016-0.064,3.475-0.191l1.931-0.193
		c-0.086-0.088-0.965-0.881-2.638-2.381c-0.086,0.086-0.215,0.148-0.386,0.193c-0.172,0.041-0.365,0.084-0.579,0.127
		c-0.301,0.043-0.708,0.043-1.223,0h-1.223c-0.386-0.043-0.601-0.062-0.643-0.062h-0.451h-0.515l0.386,0.514l1.737,1.994H109.446z"
		/>
	<path d="M111.054,55.377c1.544-0.257,3.174-0.407,4.89-0.451c1.759,0,3.646,0.032,5.663,0.097c2.016,0.064,3.581,0.076,4.697,0.032
		c1.586-0.042,3.871-0.129,6.853-0.257c2.981-0.129,5.684-0.235,8.108-0.322c2.423-0.085,4.729-0.129,6.917-0.129h0.064
		c0.428-0.515,0.878-0.579,1.351-0.193c1.158,0.901,2.381,2.231,3.668,3.989c0.471,0.129,0.708,0.43,0.708,0.901
		c0.3,0.387,0.3,0.772,0,1.158c-0.043,2.96-0.172,5.47-0.386,7.528c-0.043,0.258-0.172,0.473-0.386,0.644
		c-0.215,0.172-0.451,0.236-0.708,0.193c-0.086,0-0.172-0.021-0.257-0.064l-0.257,0.129c-0.086,0.043-0.193,0.086-0.322,0.129
		c-0.172,0.257-0.429,0.386-0.772,0.386c-3.99,0-7.379,0.236-10.167,0.708c0,3.989,0.085,10.06,0.257,18.21
		c0.171,8.15,0.257,14.307,0.257,18.467c0,0.385-0.151,0.664-0.451,0.836c0.042,0.086,0.085,0.193,0.129,0.322
		c0.042,0.258-0.011,0.492-0.161,0.707c-0.151,0.215-0.354,0.363-0.611,0.451c-1.245,0.258-2.96,0.406-5.148,0.449
		c-2.403,0.043-4.033,0.129-4.89,0.258c-0.257,0.043-0.494-0.021-0.708-0.193c-0.215-0.172-0.344-0.385-0.386-0.643v-0.258
		c-0.129-0.215-0.344-0.559-0.644-1.029l-0.772-1.029c-0.215-0.301-0.44-0.666-0.676-1.094c-0.236-0.43-0.44-0.816-0.611-1.158
		c-0.043-0.129-0.064-0.258-0.064-0.387c-0.086-0.129-0.128-0.301-0.128-0.514c0-0.301,0.128-0.537,0.386-0.709
		c0-4.16-0.064-10.08-0.193-17.759c-0.129-7.678-0.215-12.954-0.257-15.829c-0.473,0-1.512-0.021-3.121-0.064
		c-1.608-0.042-2.928-0.053-3.957-0.032c-1.029,0.022-2.038,0.097-3.024,0.226c-0.257,0.043-0.494-0.021-0.708-0.193
		c-0.215-0.171-0.344-0.396-0.386-0.676c-0.043-0.278,0.021-0.524,0.193-0.739l-0.45-0.708c-0.257-0.343-0.44-0.579-0.547-0.708
		c-0.107-0.129-0.257-0.332-0.451-0.611c-0.193-0.278-0.354-0.482-0.482-0.611s-0.279-0.257-0.45-0.386L112.083,64
		c-0.515-0.3-0.665-0.708-0.451-1.223v-0.322c-0.472-1.887-0.708-3.581-0.708-5.083v-0.129c-0.343-0.128-0.557-0.364-0.644-0.708
		c-0.042-0.3,0.011-0.557,0.161-0.772C110.593,55.549,110.796,55.42,111.054,55.377z M133.704,61.683
		c0.128,0,2.455-0.032,6.981-0.097c4.525-0.064,6.874-0.032,7.046,0.097c-0.043-2.445-0.022-4.247,0.064-5.405
		c-2.102,0-4.354,0.043-6.756,0.128c-2.403,0.086-5.051,0.193-7.947,0.322c-2.896,0.129-5.159,0.215-6.789,0.257
		c-1.03,0.043-3.314,0.022-6.853-0.064c-3.539-0.085-5.759-0.021-6.66,0.193c0.042,0.086,0.064,0.172,0.064,0.257
		c0,1.287,0.193,2.746,0.579,4.376c1.329,0.215,3.324,0.279,5.984,0.192c3.561-0.085,5.877-0.106,6.95-0.064
		c0.257,0,0.471,0.107,0.643,0.322c0.258,0,0.483,0.097,0.676,0.289c0.193,0.193,0.29,0.419,0.29,0.676
		c0,4.419,0.075,10.993,0.225,19.722c0.15,8.73,0.226,15.218,0.226,19.464c1.115,0.043,2.896-0.041,5.34-0.256
		c-0.472-8.451-0.708-16-0.708-22.651c0-1.114,0.032-2.82,0.096-5.115c0.064-2.294,0.085-4.321,0.064-6.081
		c-0.022-1.758-0.119-3.431-0.29-5.019c-0.128-0.171-0.193-0.364-0.193-0.579c0-0.258,0.097-0.482,0.29-0.676
		S133.446,61.683,133.704,61.683z M116.78,67.024c0.901-0.043,1.855-0.075,2.864-0.097c1.007-0.021,2.208-0.011,3.603,0.032
		c1.394,0.043,2.327,0.064,2.799,0.064v-3.218c-0.944-0.042-3.132-0.021-6.563,0.064c-1.93,0.086-3.497,0.064-4.697-0.064
		l1.802,2.51C116.758,66.531,116.823,66.766,116.78,67.024z M130.744,107.562c0.772-0.086,2.166-0.15,4.182-0.193
		c1.287-0.043,2.294-0.107,3.024-0.193c-0.944-0.986-1.781-2.08-2.509-3.281c-0.086,0.043-0.193,0.064-0.322,0.064
		c-3.518,0.215-5.706,0.322-6.563,0.322c0.214,0.428,0.579,1.006,1.094,1.736L130.744,107.562z M138.787,69.662
		c-0.086-0.129-0.151-0.258-0.193-0.386v-0.129l-1.094-1.48c-0.515-0.686-0.965-1.265-1.352-1.737l-1.158-1.351
		c0.129,2.188,0.193,3.851,0.193,4.986c0,1.138-0.032,2.799-0.097,4.987c-0.064,2.188-0.097,3.818-0.097,4.89
		c0,6.434,0.235,13.684,0.708,21.749c0.343,0,0.6,0.172,0.772,0.516c0.772,1.5,1.715,2.873,2.831,4.117
		c0-3.988-0.086-10.006-0.257-18.049C138.872,79.732,138.787,73.694,138.787,69.662z M140.138,67.989
		c2.745-0.472,6.048-0.729,9.909-0.772c-0.515-0.857-1.309-2.059-2.381-3.604c-1.888-0.128-5.534-0.128-10.939,0
		c0.386,0.387,0.772,0.827,1.158,1.319c0.386,0.494,0.805,1.062,1.255,1.705S139.923,67.731,140.138,67.989z M152.042,59.688
		c-0.944-1.287-1.716-2.23-2.316-2.831c-0.043,0.644-0.064,2.725-0.064,6.241c0.901,1.287,1.609,2.36,2.124,3.218
		C151.956,64.514,152.042,62.305,152.042,59.688z"/>
	<path d="M174.112,61.04c0.171,1.673,0.257,3.925,0.257,6.756c0,3.304,0.042,5.491,0.129,6.563v0.064v0.064h15.765
		c-0.043-0.387,0.106-0.686,0.45-0.901c0.042-1.114,0.129-2.852,0.257-5.212c0.129-2.358,0.193-4.063,0.193-5.115
		c0-1.051-0.086-2.713-0.257-4.987c-0.473-0.17-0.687-0.492-0.644-0.965c0-0.257,0.106-0.471,0.322-0.644
		c0.214-0.171,0.45-0.257,0.708-0.257c0,0.086,1.158,0.108,3.475,0.064l3.539-0.064c0.129,0,0.257,0.022,0.386,0.064l0.129-0.128
		c0.515-0.429,0.965-0.407,1.351,0.064c0.472,0.558,1.232,1.395,2.284,2.509c1.051,1.116,1.834,1.995,2.349,2.639
		c0.171,0.172,0.257,0.365,0.257,0.579c0.085,0.172,0.129,0.321,0.129,0.45c0.214,3.346,0.364,7.068,0.45,11.164
		c0.085,4.097,0.129,7.551,0.129,10.359c0,2.81-0.011,6.671-0.032,11.582c-0.022,4.914-0.032,8.439-0.032,10.586
		c0,0.387-0.172,0.664-0.515,0.836c-0.129,0.516-0.451,0.773-0.965,0.773c-0.301,0-1.062-0.012-2.284-0.033s-2.081-0.021-2.574,0
		c-0.494,0.021-1.181,0.074-2.059,0.16c-0.88,0.086-1.641,0.215-2.284,0.387c-0.258,0.043-0.505,0-0.74-0.129
		c-0.236-0.129-0.397-0.32-0.482-0.578v-0.064c-0.772-0.9-2.017-2.082-3.732-3.539c-0.472-0.387-0.494-0.836-0.064-1.352
		c0.128-0.172,0.322-0.279,0.579-0.322c0-0.857,0.064-2.574,0.193-5.146c0.171-2.574,0.278-4.504,0.322-5.791
		c0.042-1.201,0.064-2.295,0.064-3.283h-0.193c-0.043,0-2.692-0.031-7.946-0.096c-5.255-0.064-7.905-0.031-7.947,0.096l-0.129,0.129
		c-0.128,0.088-0.279,0.129-0.45,0.129c0,2.059-0.064,5.223-0.193,9.492c-0.128,4.268-0.193,7.516-0.193,9.748
		c0,0.643-0.322,0.965-0.965,0.965c-0.386,0-0.687-0.172-0.901-0.516c-0.128,0.043-0.257,0.064-0.386,0.064
		c-5.019,0-7.85,0.021-8.494,0.064c-0.257,0-0.494-0.086-0.708-0.258c-0.215-0.172-0.322-0.385-0.322-0.643
		c-0.043-0.43,0.129-0.73,0.515-0.9l-0.386-0.645c-0.473-0.857-0.859-1.479-1.158-1.865c-0.344-0.473-0.301-0.9,0.128-1.287
		c0.042-0.258,0.15-0.451,0.322-0.578c0-2.189,0.01-5.803,0.032-10.844c0.021-5.039,0.032-8.986,0.032-11.839
		c0-2.852-0.043-6.358-0.128-10.521c-0.087-4.16-0.236-7.979-0.451-11.453v-0.064c-0.215-0.171-0.322-0.407-0.322-0.708
		c0-0.643,0.322-0.965,0.965-0.965c0.729,0,1.758-0.021,3.088-0.064c1.329-0.042,2.252-0.064,2.767-0.064
		c0.343-0.257,0.686-0.278,1.029-0.064c2.059,1.158,3.774,2.725,5.148,4.697c0.171,0.258,0.235,0.515,0.193,0.772V61.04z
		 M192,80.922c0.515,1.029,0.857,2.573,1.029,4.633c0.085,1.543,0.085,3.54,0,5.985c-0.043,1.33-0.151,3.152-0.322,5.469
		c-0.128,2.402-0.193,4.012-0.193,4.826h5.92c0-2.832-0.086-7.176-0.257-13.031c-0.172-5.855-0.257-10.304-0.257-13.351
		c0-1.329,0.053-3.249,0.161-5.759c0.106-2.51,0.161-4.429,0.161-5.759c0-1.329-0.087-3.195-0.258-5.599
		c-0.386,0-1.18,0.012-2.38,0.033c-1.202,0.021-2.124,0.031-2.767,0.031c0.214,2.274,0.311,4.086,0.29,5.438
		c-0.022,1.352-0.107,3.186-0.257,5.502c-0.151,2.316-0.225,4.054-0.225,5.212c0,0.215-0.064,0.408-0.193,0.579v0.064
		c0.085,0.215,0.064,0.439-0.064,0.675c-0.129,0.236-0.322,0.397-0.579,0.483c-0.258,0.086-0.515,0.043-0.772-0.129
		c-0.172,0.129-0.365,0.192-0.579,0.192h-21.041c-0.644,0-0.965-0.321-0.965-0.965c0-0.129,0.021-0.235,0.064-0.321
		c-0.086-0.129-0.128-0.258-0.128-0.387c-0.215-1.844-0.365-4.762-0.451-8.751c-0.086-4.246-0.172-7.078-0.257-8.493
		c-0.515,0-1.277,0.022-2.284,0.064c-1.008,0.043-1.749,0.064-2.22,0.064c0.214,3.389,0.364,7.165,0.451,11.325
		c0.085,4.161,0.128,7.615,0.128,10.36s-0.011,6.66-0.032,11.742c-0.022,5.084-0.032,8.635-0.032,10.65
		c1.416-0.086,2.873-0.15,4.375-0.193c0.042-0.129,0.106-0.215,0.193-0.258c0.171-0.129,0.343-0.213,0.515-0.258V81.566
		c0-0.644,0.322-0.966,0.965-0.966h0.193c0.129-0.042,0.257-0.064,0.386-0.064c8.064,0,14.821-0.171,20.269-0.515
		c0.386-0.042,0.665,0.107,0.836,0.451C191.721,80.558,191.914,80.708,192,80.922z M165.04,106.274c0.042-0.043,1.158-0.043,3.346,0
		h2.252c0.085-0.172,0.193-0.301,0.322-0.387c-0.043,0-0.064-0.021-0.064-0.064c-0.301-0.473-0.965-1.266-1.995-2.381
		c-1.888,0-3.711,0.086-5.469,0.258l0.708,1.094C164.567,105.479,164.868,105.974,165.04,106.274z M172.182,61.104
		c-0.73-1.03-1.566-1.931-2.51-2.703c0.042,1.202,0.106,3.732,0.193,7.593c0.042,3.562,0.193,6.393,0.45,8.494h2.252
		c-0.086-1.115-0.128-3.347-0.128-6.692c0-2.744-0.086-4.911-0.257-6.499V61.104z M172.89,86.907
		c-0.772-1.202-1.502-2.167-2.188-2.897v18.274v0.193c0.644,0.729,1.136,1.33,1.48,1.803c0.042-1.201,0.118-3.732,0.225-7.594
		c0.106-3.861,0.161-6.863,0.161-9.008C172.568,87.378,172.675,87.122,172.89,86.907z M174.82,86.263
		c1.586-0.086,3.271-0.129,5.051-0.129c1.78,0,3.774,0.021,5.984,0.064c2.209,0.043,3.914,0.064,5.115,0.064h0.129v-0.579
		c-0.129-1.674-0.365-2.917-0.708-3.732c-5.147,0.344-11.304,0.515-18.467,0.515C172.782,83.368,173.748,84.633,174.82,86.263z
		 M201.652,105.952l-2.059-2.188H199.4c-0.087,0-0.172-0.021-0.258-0.064c-0.086,0.043-0.172,0.064-0.257,0.064h-6.241
		c1.029,0.9,1.908,1.758,2.638,2.574C196.783,106.038,198.907,105.909,201.652,105.952z M203.261,62.712l-3.217-3.604
		c0.171,0.815,0.182,3.571,0.032,8.269c-0.151,4.697-0.225,7.39-0.225,8.075c0,3.047,0.085,7.528,0.257,13.449
		c0.171,5.92,0.257,10.316,0.257,13.191c0.257,0,0.472,0.107,0.644,0.32l2.767,2.896c0-1.846,0.01-5.266,0.032-10.264
		c0.021-4.996,0.032-8.805,0.032-11.421c0-2.616-0.043-5.93-0.128-9.941C203.625,69.672,203.475,66.016,203.261,62.712z"/>
	<path d="M247.401,94.692c1.115-0.215,2.487,0.301,4.118,1.545c0.601,0.428,1.501,1.221,2.702,2.379
		c0.086,0.045,0.171,0.109,0.258,0.193l0.064,0.064c0.257,0.215,0.363,0.516,0.321,0.902c0.171,0.514,0.29,1.115,0.354,1.801
		c0.063,0.688,0.096,1.266,0.096,1.736c0,0.473-0.011,1.084-0.032,1.834s-0.031,1.277-0.031,1.578c0,0.643-0.322,0.965-0.966,0.965
		c-0.301,0-0.558-0.107-0.772-0.322c-0.128,0.258-0.344,0.428-0.643,0.516c-0.901,0.17-1.856,0.277-2.864,0.32
		s-2.146,0.055-3.41,0.033c-1.266-0.023-2.178-0.033-2.734-0.033c-1.716,0.043-4.193,0.064-7.432,0.064
		c-3.239,0-6.167,0.043-8.783,0.129c-2.617,0.086-5.062,0.258-7.336,0.516l-0.129,0.129c-0.386,0.385-0.794,0.406-1.222,0.064
		c-0.258,0.041-0.494-0.023-0.708-0.193c-0.216-0.172-0.344-0.387-0.387-0.645v-0.32c-0.172-0.217-0.707-0.838-1.608-1.867
		l-2.059-2.381c-0.258-0.301-0.322-0.621-0.193-0.965v-0.064c0-0.299,0.106-0.535,0.321-0.707V71.141c0-0.9-0.054-2.391-0.16-4.472
		c-0.108-2.08-0.161-3.668-0.161-4.762s0.106-2.627,0.321-4.601c-0.215-0.171-0.343-0.386-0.386-0.644
		c-0.043-0.257,0.021-0.492,0.193-0.708c0.171-0.214,0.386-0.343,0.644-0.386c1.243-0.171,2.584-0.278,4.021-0.322
		c1.437-0.042,3.109-0.032,5.019,0.032c1.908,0.064,3.228,0.097,3.958,0.097c1.415,0,3.56-0.064,6.434-0.193
		c2.874-0.129,5.02-0.193,6.435-0.193c0.086,0,0.601-0.021,1.545-0.064c1.071-0.042,1.887-0.085,2.445-0.128
		c0.986,0,1.779,0.043,2.381,0.128c0.128,0,0.257,0.022,0.386,0.064c0.214-0.128,0.429-0.193,0.644-0.193
		c1.287,0.086,2.445,0.687,3.475,1.802c0.257,0.257,0.644,0.708,1.158,1.351l0.708,0.9c0.128,0.087,0.214,0.193,0.257,0.322
		l0.064,0.064c0.3,0.301,0.343,0.665,0.129,1.094c0.085,1.029,0.117,1.792,0.097,2.284c-0.022,0.494-0.087,1.233-0.193,2.22
		c-0.107,0.987-0.161,1.695-0.161,2.124c0.215,0.172,0.322,0.408,0.322,0.707c0,0.644-0.322,0.966-0.966,0.966h-1.222
		c-0.345,0.172-0.688,0.172-1.03,0c-1.93,0-6.478-0.086-13.641-0.258c-0.301,0-1.909,0.012-4.826,0.032
		c-2.918,0.022-4.568-0.032-4.955-0.161c-0.128,0.345-0.215,0.751-0.257,1.223c-0.043,0.473-0.064,0.869-0.064,1.19
		c0,0.322,0.01,0.827,0.032,1.513c0.021,0.687,0.032,1.158,0.032,1.415c1.887-0.085,3.902-0.128,6.048-0.128
		c2.145,0,4.525,0.021,7.143,0.063c2.616,0.044,4.525,0.064,5.727,0.064c0.387-0.3,0.772-0.3,1.158,0
		c0.901,0.644,2.317,2.038,4.247,4.183h0.387c0.257,0.043,0.46,0.184,0.611,0.418c0.149,0.236,0.202,0.483,0.16,0.74
		c0.343,0.473,0.322,0.923-0.064,1.352c-0.086,0.043-0.15,0.086-0.192,0.129c-0.258,1.716-0.322,3.432-0.193,5.147
		c0.042,0.428-0.129,0.75-0.515,0.965c-0.215,0.344-0.515,0.514-0.901,0.514c-1.63,0-3.915-0.041-6.853-0.127
		c-2.938-0.086-5.598-0.129-7.979-0.129s-4.623,0.086-6.725,0.256v0.451c-0.172,0.516-0.279,1.115-0.321,1.801
		c-0.043,0.688-0.064,1.277-0.064,1.77c0,0.494,0.01,1.158,0.032,1.996c0.021,0.836,0.032,1.49,0.032,1.963v0.064
		c3.86-0.215,10.038-0.322,18.531-0.322C247.314,94.757,247.358,94.735,247.401,94.692z M220.891,62.327
		c2.06-0.258,5.705-0.258,10.939,0c1.544,0.086,4.01,0.086,7.399,0c4.16-0.086,6.67-0.129,7.528-0.129h0.064
		c0.085-0.129,0.214-0.235,0.386-0.322c0.129-1.243,0.215-2.059,0.258-2.444c0.042-1.159,0.021-1.973-0.064-2.446l-0.064-0.064
		c-0.129-0.042-0.321-0.064-0.579-0.064c-0.515-0.085-1.223-0.129-2.123-0.129c-0.602,0.043-1.374,0.086-2.316,0.129
		c-0.944,0.043-1.502,0.064-1.674,0.064c-1.415,0-3.561,0.064-6.435,0.193c-2.874,0.128-5.019,0.193-6.434,0.193
		c-0.859,0-2.092-0.032-3.7-0.096c-1.608-0.064-3.035-0.085-4.279-0.064c-1.244,0.022-2.424,0.075-3.539,0.161v0.129
		c-0.215,1.931-0.321,3.4-0.321,4.407c0,1.009,0.053,2.542,0.16,4.602c0.107,2.059,0.161,3.625,0.161,4.696v30.565
		c3.432,0,8.654-0.129,15.668-0.387s12.301-0.385,15.861-0.385c0.043-1.158,0.043-2.061,0-2.703l-0.064-0.064
		c-0.257-0.043-0.45-0.182-0.579-0.418c-0.128-0.236-0.15-0.482-0.064-0.74c0-0.129,0.021-0.236,0.064-0.322
		c-8.493,0-14.671,0.107-18.531,0.322c-0.43,0.043-1.19,0.107-2.284,0.193s-1.877,0.129-2.349,0.129h-2.381h-0.064
		c-0.086,0-0.172-0.021-0.257-0.064c-0.129-0.086-0.248-0.184-0.354-0.291c-0.107-0.105-0.183-0.246-0.225-0.418V96.3v-0.062
		c0.729-5.105,0.644-9.566-0.258-13.385c-0.086-0.343,0.021-0.643,0.321-0.9c-0.043-0.258,0.011-0.504,0.161-0.74
		c0.15-0.235,0.354-0.375,0.611-0.418c2.273-0.429,6.263-0.644,11.969-0.644c6.348,0,10.188-0.021,11.518-0.064
		c0.042-0.257,0.129-0.472,0.258-0.644c0.042,0,0.085-0.021,0.128-0.064c-0.043-0.214-0.086-0.782-0.128-1.705
		c-0.044-0.922-0.064-1.641-0.064-2.155c-1.073,0-3.035-0.021-5.888-0.064c-2.854-0.042-5.062-0.064-6.628-0.064
		c-1.566,0-3.485,0.055-5.759,0.161c-2.274,0.107-4.269,0.289-5.984,0.547c-0.257,0.043-0.493-0.021-0.708-0.193
		c-0.215-0.171-0.344-0.386-0.386-0.644c-0.043-0.343,0.086-0.643,0.386-0.9c-0.215-0.943-0.344-1.995-0.386-3.153
		c-0.043-1.158-0.022-2.455,0.064-3.893c0.085-1.437,0.129-2.413,0.129-2.928c0-0.214,0.064-0.386,0.192-0.515
		c-0.086-0.171-0.15-0.322-0.192-0.45c-0.044-0.258,0.021-0.493,0.192-0.708C220.418,62.499,220.634,62.37,220.891,62.327z
		 M219.668,107.046c2.359-0.256,4.891-0.439,7.593-0.547c2.703-0.107,5.728-0.16,9.073-0.16s5.855-0.021,7.528-0.064
		c0.557,0,1.77,0.01,3.636,0.031s3.013-0.01,3.442-0.096l-1.094-1.029c-0.772-0.73-1.459-1.223-2.06-1.48
		c-0.344-0.172-0.536-0.449-0.579-0.836c-3.475,0-8.59,0.117-15.346,0.354c-6.757,0.236-11.808,0.375-15.154,0.418L219.668,107.046z
		 M225.138,68.761c-0.172-0.043-0.344-0.129-0.515-0.258c-1.116-1.158-1.995-2.316-2.639-3.475c0,0.473-0.043,1.427-0.128,2.863
		c-0.087,1.438-0.119,2.606-0.097,3.507c0.021,0.9,0.139,1.76,0.354,2.574l2.96-0.258C225.03,71.056,225.051,69.404,225.138,68.761z
		 M227.004,87.679c-0.215,0-0.43-0.064-0.644-0.193c-0.386-0.258-1.223-0.943-2.51-2.059c-0.429-0.386-0.794-0.686-1.094-0.9
		c0.472,3.303,0.472,6.95,0,10.938c0.729,0,2.08-0.086,4.054-0.258v-0.191c0-0.301-0.021-1.02-0.064-2.156s-0.043-2.102,0-2.896
		C226.789,89.169,226.875,88.409,227.004,87.679z M226.746,85.362c2.273-0.257,4.568-0.418,6.885-0.482
		c2.317-0.064,5.276-0.042,8.88,0.064c3.604,0.107,5.877,0.161,6.821,0.161c-0.602-0.814-1.609-1.908-3.024-3.282
		c-0.129,0.087-0.258,0.129-0.387,0.129c-1.544,0.087-5.684,0.129-12.418,0.129c-4.891,0-8.301,0.129-10.231,0.386
		c0.515,0.386,1.115,0.88,1.802,1.48C226.146,84.847,226.703,85.32,226.746,85.362z M226.103,66.123
		c1.072,0.172,2.198,0.279,3.379,0.322c1.179,0.043,2.53,0.054,4.054,0.031c1.521-0.021,2.691-0.031,3.507-0.031
		c6.733,0.128,10.874,0.215,12.418,0.257c-0.257-0.515-0.472-0.9-0.643-1.158c-0.301-0.515-0.602-0.922-0.901-1.223
		c-0.086,0-0.172-0.021-0.257-0.064c-0.173-0.042-0.301-0.129-0.387-0.257c-0.172,0.086-0.344,0.128-0.515,0.128
		c-0.815,0-3.304,0.044-7.464,0.129c-3.433,0.087-5.963,0.087-7.593,0c-3.775-0.214-6.457-0.278-8.043-0.192
		c0.386,0.771,0.942,1.544,1.673,2.316C225.545,66.166,225.803,66.081,226.103,66.123z M250.361,79.571
		c-0.087-0.085-0.526-0.568-1.319-1.447c-0.794-0.879-1.427-1.533-1.898-1.963c0.043,0.386,0.086,1.02,0.129,1.898
		c0.042,0.879,0.064,1.576,0.064,2.091c1.287,1.245,2.188,2.188,2.702,2.831C250.082,81.866,250.189,80.729,250.361,79.571z
		 M251.905,60.074l-0.771-0.9c-0.43-0.601-0.772-1.03-1.03-1.287c-0.257-0.257-0.515-0.471-0.771-0.644
		c0.085,0.602,0.106,1.374,0.064,2.316c-0.044,0.43-0.129,1.223-0.258,2.381c0.129,0.258,0.149,0.515,0.064,0.772v0.129
		c0.386,0.429,0.793,0.987,1.223,1.673l0.836,1.479l0.387,0.708c0.042-0.472,0.106-1.243,0.192-2.316
		c0.086-1.071,0.129-1.791,0.129-2.155S251.947,61.147,251.905,60.074z M253.321,105.694c0.085-2.83-0.064-4.738-0.45-5.727
		c-1.073-1.029-1.909-1.758-2.51-2.188l-0.644-0.514v0.514c0.042,0.602,0.054,1.117,0.032,1.545c-0.022,0.43-0.032,0.922-0.032,1.48
		v0.9c0,0.258-0.087,0.494-0.258,0.707c0.516,0.301,1.095,0.75,1.737,1.352c1.287,1.158,1.973,1.779,2.06,1.865L253.321,105.694z"/>
	<path d="M275.392,87.872c0.128,1.973,0.203,4,0.225,6.08c0.021,2.082,0.011,4.568-0.032,7.465c-0.043,2.895-0.064,4.922-0.064,6.08
		c0,0.643-0.321,0.965-0.965,0.965c-0.386,0-0.665-0.172-0.836-0.514c-0.216,0.213-0.473,0.32-0.772,0.32
		c-0.43,0-1.126-0.031-2.092-0.096c-0.965-0.064-1.737-0.076-2.316-0.033s-1.126,0.172-1.641,0.387
		c-0.257,0.086-0.515,0.074-0.771-0.031c-0.258-0.109-0.43-0.27-0.516-0.484c-0.172-0.471-0.063-0.857,0.322-1.158l-0.708-1.029
		c-0.558-0.771-0.923-1.33-1.094-1.672c-0.386-0.215-0.558-0.537-0.515-0.965c-0.215-0.172-0.322-0.408-0.322-0.709
		c0-0.385,0.193-0.686,0.579-0.9c0.129-0.344,0.139-1.887,0.032-4.633c-0.107-2.744-0.16-4.375-0.16-4.891V67.087
		c0-0.299-0.022-0.954-0.064-1.962c-0.044-1.008-0.087-1.77-0.129-2.284c-0.043-1.03-0.043-1.866,0-2.51
		c0.042-0.9,0.149-1.565,0.321-1.995c0.171-0.386,0.493-0.686,0.966-0.9c0.3-0.129,0.664-0.257,1.094-0.386
		c0.729-0.171,1.694-0.299,2.896-0.386c1.372-0.128,3.002-0.193,4.891-0.193c0.729,0,1.833-0.021,3.313-0.064
		c1.479-0.042,2.391-0.064,2.734-0.064h2.51c0.129-0.042,0.235-0.064,0.321-0.064c5.705,0,10.252,0.558,13.642,1.673
		c5.447,1.802,8.622,5.019,9.523,9.652c0.085,0.558,0.149,1.147,0.192,1.77s0.064,1.147,0.064,1.576s-0.032,1.029-0.097,1.802
		c-0.063,0.771-0.107,1.298-0.128,1.576c-0.022,0.279-0.097,0.858-0.226,1.737c-0.129,0.88-0.193,1.384-0.193,1.512
		c-0.086,0.772-0.45,1.76-1.094,2.96c-0.473,0.944-0.751,1.674-0.836,2.188c0.814,1.631,1.114,3.861,0.9,6.691
		c0,0.129-0.032,0.482-0.097,1.062c-0.064,0.578-0.096,0.965-0.096,1.158s-0.012,0.525-0.032,0.998
		c-0.022,0.473-0.022,0.836,0,1.094c0.021,0.256,0.053,0.578,0.096,0.965s0.107,0.73,0.193,1.029
		c0.171,0.559,0.472,1.352,0.901,2.381c0.557,1.244,0.922,2.123,1.094,2.639c0.771,2.316,0.707,4.311-0.193,5.984
		c-0.301,0.557-0.729,0.686-1.287,0.385c-0.129,0.043-0.236,0.064-0.321,0.064c-0.559,0.086-1.287,0.129-2.188,0.129
		c-0.643,0-1.502-0.021-2.573-0.064c-0.043,0.129-0.107,0.215-0.193,0.258c-0.558,0.387-1.008,0.322-1.351-0.193
		c-0.772-1.115-2.21-2.51-4.312-4.182c-0.215-0.043-0.408-0.152-0.579-0.322c-0.129-0.129-0.215-0.279-0.258-0.451
		c-0.043-0.041-0.064-0.084-0.064-0.129v-0.191v-0.258v-0.9c0-0.301,0.021-1.158,0.064-2.574v-2.51
		c-1.373-2.916-3.152-4.955-5.341-6.113c-1.888-0.986-4.633-1.586-8.235-1.801c-0.301,0-0.708-0.021-1.223-0.064l-1.094-0.064
		c-0.258-0.043-0.559-0.053-0.901-0.033C276.013,87.733,275.69,87.786,275.392,87.872z M265.61,59.173
		c-0.043,0.258-0.086,0.665-0.128,1.223v2.381c0.042,0.515,0.085,1.287,0.128,2.316s0.064,1.695,0.064,1.994v24.966
		c0,0.344,0.054,1.889,0.161,4.633c0.106,2.746,0.097,4.375-0.032,4.891c0.814,0,1.458,0.021,1.931,0.064h1.994h0.193
		c0-0.129,0.021-0.279,0.064-0.451c0.042-0.514,0.064-1.264,0.064-2.252c0-1.072-0.043-3.217-0.129-6.434
		c-0.086-3.219-0.129-5.363-0.129-6.436c0-0.943,0.021-1.672,0.064-2.187c0-0.343,0.021-0.601,0.064-0.772
		c0.042-0.171,0.086-0.3,0.129-0.386c0.085-0.215,0.214-0.387,0.386-0.515c0.171-0.129,0.364-0.215,0.579-0.258h0.387
		c0.257-0.042,0.621-0.064,1.094-0.064h3.023c2.359,0.043,4.055,0.087,5.084,0.129c4.461,0.257,7.764,1.158,9.909,2.702
		c2.445,1.802,3.967,4.826,4.568,9.074c0.042,0.385,0.042,1.908,0,4.568c-0.043,1.416-0.064,2.273-0.064,2.574v0.32
		c0.429-0.086,0.75-0.129,0.965-0.129c0.644,0,1.565,0.043,2.768,0.129c0.729,0,1.265,0.023,1.608,0.064
		c-0.729-0.814-1.352-2.037-1.866-3.668c-0.429-1.371-0.665-3.58-0.708-6.627c0-2.703-0.279-4.719-0.836-6.048
		c-0.772-1.931-1.866-3.11-3.282-3.539l-0.321,0.064c-0.258,0-0.473-0.021-0.644-0.064c-0.43-0.129-0.687-0.407-0.772-0.837
		c-0.215-0.6-0.043-1.071,0.516-1.415c0.214-0.129,0.515-0.235,0.9-0.322c0.086,0,0.203-0.01,0.354-0.032
		c0.15-0.021,0.268-0.032,0.354-0.032c0.129-0.042,0.214-0.064,0.257-0.064c1.072-0.557,2.102-1.521,3.089-2.896
		c1.973-2.702,2.896-4.932,2.767-6.691c-0.128-1.715-1.309-3.797-3.539-6.241c-2.316-2.488-5.812-3.968-10.488-4.44
		c-1.673-0.171-3.775-0.235-6.306-0.193c-0.386,0-1.319,0.022-2.799,0.064c-1.48,0.043-2.585,0.064-3.313,0.064
		c-1.846,0-3.433,0.064-4.762,0.193c-1.073,0.086-1.931,0.193-2.574,0.321c-0.301,0.087-0.537,0.172-0.708,0.258H265.61z
		 M267.799,106.339c0.557-0.086,2.101-0.086,4.633,0l-2.06-2.832c-0.215,0.043-0.429,0.064-0.644,0.064h-1.994
		c-0.473-0.043-1.052-0.064-1.737-0.064c0.085,0.172,0.363,0.58,0.836,1.223C267.262,105.374,267.583,105.909,267.799,106.339z
		 M272.561,62.327c0.6-0.129,1.243-0.203,1.93-0.226c0.686-0.021,1.458-0.01,2.316,0.032c0.857,0.043,1.416,0.064,1.673,0.064
		c4.547,0,8.064,0.45,10.553,1.351c2.017,0.73,3.475,1.737,4.376,3.024c1.071,1.545,1.287,3.454,0.644,5.727
		c-0.258,0.987-0.751,2.018-1.48,3.089c-0.729,1.073-1.522,1.845-2.381,2.316c-1.286,0.73-2.553,1.138-3.796,1.223
		c-1.245,0.087-3.925,0.129-8.043,0.129c-2.018,0.043-3.626,0.043-4.826,0c-0.73-0.042-1.287-0.086-1.673-0.129
		c-0.258,0-0.45-0.021-0.579-0.064c-0.129-0.042-0.236-0.064-0.322-0.064c-0.172-0.085-0.321-0.171-0.45-0.257
		c-0.172-0.214-0.279-0.472-0.321-0.772c-0.044-0.129-0.064-0.3-0.064-0.515c0-0.3,0.042-0.686,0.128-1.158
		c0-0.258,0.032-0.579,0.097-0.965c0.064-0.387,0.097-0.601,0.097-0.644c0.214-2.402,0.322-5.641,0.322-9.717
		c-0.344-0.042-0.602-0.235-0.772-0.579c-0.258-0.557-0.087-0.986,0.515-1.286l0.258-0.129c0-0.258,0.096-0.472,0.289-0.644
		c0.193-0.171,0.418-0.258,0.676-0.258C272.066,61.875,272.345,62.027,272.561,62.327z M273.461,87.743
		c-0.129-0.043-0.236-0.129-0.321-0.258c-0.73-1.072-1.202-1.738-1.416-1.995v0.579c0,1.072,0.042,3.197,0.129,6.371
		c0.085,3.174,0.129,5.34,0.129,6.498c0,1.029-0.022,1.846-0.064,2.445c-0.044,0.344-0.087,0.623-0.129,0.836l1.802,2.445
		C273.675,96.259,273.632,90.618,273.461,87.743z M274.555,69.018c-1.158-1.501-1.78-2.316-1.866-2.445
		c-0.043,3.218-0.15,5.899-0.321,8.044c0,0.086-0.032,0.321-0.097,0.707c-0.064,0.387-0.107,0.719-0.129,0.998
		s-0.054,0.504-0.097,0.675c0.387,0.044,0.901,0.087,1.545,0.129h1.351c-0.086-1.029-0.172-2.552-0.257-4.568
		C274.597,70.542,274.555,69.362,274.555,69.018z M275.005,86.005c0.387-0.129,0.805-0.203,1.255-0.225s0.825-0.021,1.126,0
		c0.3,0.021,0.708,0.055,1.223,0.096c0.515,0.045,0.879,0.064,1.094,0.064c3.903,0.215,6.928,0.902,9.073,2.061
		c1.415,0.771,2.659,1.822,3.731,3.152c-0.643-2.145-1.694-3.775-3.152-4.891c-1.845-1.329-4.805-2.101-8.88-2.316
		c-0.987-0.043-2.638-0.086-4.955-0.129h-2.702c0.386,0.429,0.879,1.072,1.48,1.929C274.555,85.747,274.79,85.835,275.005,86.005z
		 M275.392,66.702c3.217-0.772,6.37-0.74,9.459,0.097c3.088,0.836,5.533,2.521,7.335,5.051l0.064-0.064
		c0.472-1.673,0.321-3.045-0.45-4.118c-0.644-0.942-1.781-1.715-3.411-2.316c-2.273-0.814-5.576-1.223-9.909-1.223
		c-0.386,0-0.987-0.01-1.802-0.031s-1.512-0.032-2.091-0.032s-1.126,0.043-1.641,0.128c0.729,0.559,1.501,1.416,2.316,2.574
		C275.305,66.766,275.348,66.745,275.392,66.702z M276.485,68.439c0,0.558,0.042,1.866,0.129,3.925
		c0.085,2.06,0.171,3.668,0.257,4.826c0.472,0,0.966-0.021,1.48-0.064c4.074,0,6.713-0.042,7.914-0.129
		c0.943-0.085,1.951-0.406,3.024-0.965c0.644-0.343,1.287-1.051,1.931-2.123c-0.044-0.086-0.087-0.15-0.129-0.193
		c-1.373-2.358-3.422-3.979-6.146-4.858C282.222,67.979,279.401,67.838,276.485,68.439z M301.966,84.139l-0.064-0.064l-0.9-0.707
		l-0.129-0.129l-0.386-0.129c-1.631-1.071-3.067-1.866-4.312-2.381c1.115,0.858,1.973,2.017,2.574,3.475
		c0.644,1.588,0.965,3.862,0.965,6.821c0.042,2.875,0.235,4.869,0.579,5.984c0.472,1.416,0.965,2.424,1.48,3.023
		c0.042,0.043,0.085,0.076,0.128,0.098s0.129,0.074,0.258,0.16l0.386,0.258c0.644,0.387,0.966,0.857,0.966,1.416l1.223,1.479
		l0.321,0.451c0-0.73-0.15-1.586-0.45-2.574c-0.044-0.129-0.387-0.943-1.03-2.445c-0.472-1.115-0.794-1.994-0.965-2.637
		c-0.129-0.387-0.225-0.795-0.289-1.223c-0.064-0.43-0.108-0.805-0.129-1.127c-0.022-0.322-0.022-0.74,0-1.254
		c0.021-0.516,0.042-0.891,0.064-1.127c0.021-0.234,0.053-0.633,0.097-1.189c0.042-0.559,0.063-0.922,0.063-1.094
		C302.588,86.993,302.438,85.297,301.966,84.139z M301.709,81.63c0.171-0.472,0.472-1.137,0.9-1.995
		c0.472-0.986,0.75-1.759,0.837-2.316c0-0.129,0.064-0.644,0.192-1.544c0.129-0.901,0.193-1.458,0.193-1.674l0.129-1.479
		c0.085-0.729,0.129-1.287,0.129-1.673c0-0.387-0.022-0.857-0.064-1.416c-0.044-0.557-0.107-1.071-0.193-1.544
		c-0.687-3.774-3.217-6.456-7.593-8.043c0.644,0.515,1.244,1.072,1.802,1.673c2.574,2.745,3.925,5.212,4.054,7.399
		c0.171,2.231-0.88,4.891-3.153,7.979c-0.515,0.73-1.115,1.395-1.801,1.995c1.243,0.558,2.702,1.373,4.375,2.445
		C301.602,81.48,301.665,81.544,301.709,81.63z M303.768,105.31l-0.515-0.645l-1.158-1.414h-0.45h-0.193
		c-0.602,0-1.523-0.045-2.767-0.129c-0.772,0-1.352-0.023-1.737-0.064c0.9,0.771,1.65,1.521,2.252,2.252
		c1.544,0.041,2.616,0.064,3.217,0.064C302.932,105.374,303.382,105.351,303.768,105.31z"/>
</g>
<g>
	<g>
		<path d="M323.702,10.941c0.014,49.411,1.03,98.842-1.075,148.227c-0.018,0.401,1.904,0.121,1.932-0.518
			c2.105-49.385,1.09-98.816,1.075-148.227C325.634,9.999,323.702,10.311,323.702,10.941L323.702,10.941z"/>
	</g>
</g>
</svg>
